<mxfile host="65bd71144e">
    <diagram id="u0ZY0o6P-fnMu-s9cCzn" name="Page-1">
        <mxGraphModel dx="1626" dy="779" grid="1" gridSize="10" guides="1" tooltips="1" connect="1" arrows="1" fold="1" page="1" pageScale="1" pageWidth="850" pageHeight="1100" math="0" shadow="0">
            <root>
                <mxCell id="0"/>
                <mxCell id="1" parent="0"/>
                <mxCell id="2" value="MOBILE" style="rounded=1;whiteSpace=wrap;html=1;" parent="1" vertex="1">
                    <mxGeometry x="320" y="370" width="130" height="60" as="geometry"/>
                </mxCell>
                <mxCell id="3" value="" style="strokeWidth=1;shadow=0;dashed=0;align=center;html=1;shape=mxgraph.mockup.containers.browserWindow;rSize=0;strokeColor=#666666;strokeColor2=#008cff;strokeColor3=#c4c4c4;mainText=,;recursiveResize=0;" parent="1" vertex="1">
                    <mxGeometry x="150" y="510" width="480" height="4230" as="geometry"/>
                </mxCell>
                <mxCell id="4" value="Page 1" style="strokeWidth=1;shadow=0;dashed=0;align=center;html=1;shape=mxgraph.mockup.containers.anchor;fontSize=17;fontColor=#666666;align=left;" parent="3" vertex="1">
                    <mxGeometry x="60" y="12" width="110" height="26" as="geometry"/>
                </mxCell>
                <mxCell id="5" value="https://www.draw.io" style="strokeWidth=1;shadow=0;dashed=0;align=center;html=1;shape=mxgraph.mockup.containers.anchor;rSize=0;fontSize=17;fontColor=#666666;align=left;" parent="3" vertex="1">
                    <mxGeometry x="130" y="60" width="250" height="26" as="geometry"/>
                </mxCell>
                <mxCell id="6" value="&lt;font style=&quot;font-size: 24px;&quot;&gt;ABOUT US&lt;/font&gt;" style="rounded=0;whiteSpace=wrap;html=1;" parent="3" vertex="1">
                    <mxGeometry x="80" y="260" width="240" height="60" as="geometry"/>
                </mxCell>
                <mxCell id="7" value="" style="rounded=1;whiteSpace=wrap;html=1;strokeWidth=2;fillWeight=4;hachureGap=8;hachureAngle=45;fillColor=#1ba1e2;sketch=1;fontSize=24;" parent="3" vertex="1">
                    <mxGeometry x="80" y="360" width="290" height="160" as="geometry"/>
                </mxCell>
                <mxCell id="8" value="" style="rounded=0;whiteSpace=wrap;html=1;fontSize=24;" parent="3" vertex="1">
                    <mxGeometry y="110" width="480" height="80" as="geometry"/>
                </mxCell>
                <mxCell id="9" value="" style="rounded=1;whiteSpace=wrap;html=1;fontSize=24;" parent="3" vertex="1">
                    <mxGeometry x="440" y="130" width="30" height="10" as="geometry"/>
                </mxCell>
                <mxCell id="10" value="" style="rounded=1;whiteSpace=wrap;html=1;fontSize=24;" parent="3" vertex="1">
                    <mxGeometry x="440" y="145" width="30" height="10" as="geometry"/>
                </mxCell>
                <mxCell id="11" value="" style="rounded=1;whiteSpace=wrap;html=1;fontSize=24;" parent="3" vertex="1">
                    <mxGeometry x="440" y="160" width="30" height="10" as="geometry"/>
                </mxCell>
                <mxCell id="12" value="LOGO" style="ellipse;whiteSpace=wrap;html=1;fontSize=24;" parent="3" vertex="1">
                    <mxGeometry y="110" width="220" height="80" as="geometry"/>
                </mxCell>
                <mxCell id="13" value="&lt;span style=&quot;color: rgba(0, 0, 0, 0); font-family: monospace; font-size: 0px; text-align: start;&quot;&gt;%3CmxGraphModel%3E%3Croot%3E%3CmxCell%20id%3D%220%22%2F%3E%3CmxCell%20id%3D%221%22%20parent%3D%220%22%2F%3E%3CmxCell%20id%3D%222%22%20value%3D%22%22%20style%3D%22html%3D1%3BverticalLabelPosition%3Dbottom%3Balign%3Dcenter%3BlabelBackgroundColor%3D%23ffffff%3BverticalAlign%3Dtop%3BstrokeWidth%3D2%3BstrokeColor%3D%230080F0%3Bshadow%3D0%3Bdashed%3D0%3Bshape%3Dmxgraph.ios7.icons.looking_glass%3BfontSize%3D24%3B%22%20vertex%3D%221%22%20parent%3D%221%22%3E%3CmxGeometry%20x%3D%22500%22%20y%3D%22645%22%20width%3D%2240%22%20height%3D%2240%22%20as%3D%22geometry%22%2F%3E%3C%2FmxCell%3E%3C%2Froot%3E%3C%2FmxGraphModel%3E&lt;/span&gt;" style="verticalLabelPosition=bottom;shadow=0;dashed=0;align=center;html=1;verticalAlign=top;strokeWidth=1;shape=mxgraph.mockup.misc.shoppingCart;strokeColor=#999999;fontSize=24;" parent="3" vertex="1">
                    <mxGeometry x="260" y="125" width="50" height="50" as="geometry"/>
                </mxCell>
                <mxCell id="14" value="" style="html=1;verticalLabelPosition=bottom;align=center;labelBackgroundColor=#ffffff;verticalAlign=top;strokeWidth=2;strokeColor=#0080F0;shadow=0;dashed=0;shape=mxgraph.ios7.icons.looking_glass;fontSize=24;" parent="3" vertex="1">
                    <mxGeometry x="350" y="135" width="40" height="40" as="geometry"/>
                </mxCell>
                <mxCell id="15" value="*ABOUT US COMPANY PLACE HOLDER TEXT SECTION" style="whiteSpace=wrap;html=1;aspect=fixed;fontSize=24;" parent="3" vertex="1">
                    <mxGeometry x="80" y="570" width="340" height="340" as="geometry"/>
                </mxCell>
                <mxCell id="16" value="&lt;span style=&quot;color: rgba(0, 0, 0, 0); font-family: monospace; font-size: 0px; text-align: start;&quot;&gt;%3CmxGraphModel%3E%3Croot%3E%3CmxCell%20id%3D%220%22%2F%3E%3CmxCell%20id%3D%221%22%20parent%3D%220%22%2F%3E%3CmxCell%20id%3D%222%22%20value%3D%22*ABOUT%20US%20COMPANY%20PLACE%20HOLDER%20TEXT%20SECTION%22%20style%3D%22whiteSpace%3Dwrap%3Bhtml%3D1%3Baspect%3Dfixed%3BfontSize%3D24%3B%22%20vertex%3D%221%22%20parent%3D%221%22%3E%3CmxGeometry%20x%3D%22230%22%20y%3D%221080%22%20width%3D%22340%22%20height%3D%22340%22%20as%3D%22geometry%22%2F%3E%3C%2FmxCell%3E%3C%2Froot%3E%3C%2FmxGraphModel%3E&lt;/span&gt;" style="verticalLabelPosition=bottom;shadow=0;dashed=0;align=center;html=1;verticalAlign=top;strokeWidth=1;shape=mxgraph.mockup.graphics.simpleIcon;strokeColor=#999999;fontSize=24;" parent="3" vertex="1">
                    <mxGeometry x="108.75" y="990" width="292.5" height="150" as="geometry"/>
                </mxCell>
                <mxCell id="17" value="PRICE" style="rounded=1;whiteSpace=wrap;html=1;fontSize=24;" parent="3" vertex="1">
                    <mxGeometry x="60" y="1200" width="120" height="60" as="geometry"/>
                </mxCell>
                <mxCell id="18" value="&lt;span style=&quot;color: rgba(0, 0, 0, 0); font-family: monospace; font-size: 0px; text-align: start;&quot;&gt;%3CmxGraphModel%3E%3Croot%3E%3CmxCell%20id%3D%220%22%2F%3E%3CmxCell%20id%3D%221%22%20parent%3D%220%22%2F%3E%3CmxCell%20id%3D%222%22%20value%3D%22PRICE%22%20style%3D%22rounded%3D1%3BwhiteSpace%3Dwrap%3Bhtml%3D1%3BfontSize%3D24%3B%22%20vertex%3D%221%22%20parent%3D%221%22%3E%3CmxGeometry%20x%3D%22210%22%20y%3D%221710%22%20width%3D%22120%22%20height%3D%2260%22%20as%3D%22geometry%22%2F%3E%3C%2FmxCell%3E%3C%2Froot%3E%3C%2FmxGraphModel%3E&lt;/span&gt;" style="rounded=1;whiteSpace=wrap;html=1;strokeWidth=2;fillWeight=4;hachureGap=8;hachureAngle=45;fillColor=#1ba1e2;sketch=1;fontSize=24;" parent="3" vertex="1">
                    <mxGeometry x="60" y="1300" width="250" height="130" as="geometry"/>
                </mxCell>
                <mxCell id="19" value="QUALITY" style="rounded=1;whiteSpace=wrap;html=1;fontSize=24;" parent="3" vertex="1">
                    <mxGeometry x="60" y="1480" width="120" height="60" as="geometry"/>
                </mxCell>
                <mxCell id="20" value="" style="rounded=1;whiteSpace=wrap;html=1;strokeWidth=2;fillWeight=4;hachureGap=8;hachureAngle=45;fillColor=#1ba1e2;sketch=1;fontSize=24;" parent="3" vertex="1">
                    <mxGeometry x="60" y="1570" width="250" height="130" as="geometry"/>
                </mxCell>
                <mxCell id="21" value="FREE SHIPPING" style="rounded=1;whiteSpace=wrap;html=1;fontSize=24;" parent="3" vertex="1">
                    <mxGeometry x="60" y="1750" width="200" height="60" as="geometry"/>
                </mxCell>
                <mxCell id="22" value="&lt;span style=&quot;color: rgba(0, 0, 0, 0); font-family: monospace; font-size: 0px; text-align: start;&quot;&gt;%3CmxGraphModel%3E%3Croot%3E%3CmxCell%20id%3D%220%22%2F%3E%3CmxCell%20id%3D%221%22%20parent%3D%220%22%2F%3E%3CmxCell%20id%3D%222%22%20value%3D%22FREE%20SHIPPING%22%20style%3D%22rounded%3D1%3BwhiteSpace%3Dwrap%3Bhtml%3D1%3BfontSize%3D24%3B%22%20vertex%3D%221%22%20parent%3D%221%22%3E%3CmxGeometry%20x%3D%22210%22%20y%3D%222260%22%20width%3D%22200%22%20height%3D%2260%22%20as%3D%22geometry%22%2F%3E%3C%2FmxCell%3E%3C%2Froot%3E%3C%2FmxGraphModel%3E&lt;/span&gt;" style="rounded=1;whiteSpace=wrap;html=1;strokeWidth=2;fillWeight=4;hachureGap=8;hachureAngle=45;fillColor=#1ba1e2;sketch=1;fontSize=24;" parent="3" vertex="1">
                    <mxGeometry x="60" y="1840" width="250" height="130" as="geometry"/>
                </mxCell>
                <mxCell id="23" value="" style="line;strokeWidth=2;html=1;" parent="3" vertex="1">
                    <mxGeometry y="2070" width="480" height="10" as="geometry"/>
                </mxCell>
                <mxCell id="24" value="Customer Support" style="rounded=1;whiteSpace=wrap;html=1;" parent="3" vertex="1">
                    <mxGeometry x="60" y="2110" width="120" height="60" as="geometry"/>
                </mxCell>
                <mxCell id="25" value="Call or text&lt;br&gt;&lt;br&gt;* Have work cellphone number&amp;nbsp;&lt;br&gt;* Have work days that business is open" style="whiteSpace=wrap;html=1;aspect=fixed;" parent="3" vertex="1">
                    <mxGeometry x="60" y="2200" width="270" height="270" as="geometry"/>
                </mxCell>
                <mxCell id="26" value="Email&lt;br&gt;* Give us a email link that leads the user the business email leaks" style="whiteSpace=wrap;html=1;aspect=fixed;" parent="3" vertex="1">
                    <mxGeometry x="60" y="2540" width="270" height="270" as="geometry"/>
                </mxCell>
                <mxCell id="27" value="Live Chat&lt;br&gt;*Later down the line, create a live chat feature that lets the user communicate with a chat bot for simple inquiries" style="whiteSpace=wrap;html=1;aspect=fixed;" parent="3" vertex="1">
                    <mxGeometry x="60" y="2870" width="270" height="270" as="geometry"/>
                </mxCell>
                <mxCell id="28" value="" style="rounded=0;whiteSpace=wrap;html=1;" parent="3" vertex="1">
                    <mxGeometry y="3170" width="480" height="1060" as="geometry"/>
                </mxCell>
                <mxCell id="29" value="Sign Me Up" style="rounded=1;whiteSpace=wrap;html=1;" parent="3" vertex="1">
                    <mxGeometry x="55" y="3190" width="120" height="60" as="geometry"/>
                </mxCell>
                <mxCell id="30" value="" style="rounded=1;whiteSpace=wrap;html=1;" parent="3" vertex="1">
                    <mxGeometry x="55" y="3280" width="305" height="30" as="geometry"/>
                </mxCell>
                <mxCell id="31" value="" style="rounded=0;whiteSpace=wrap;html=1;" parent="3" vertex="1">
                    <mxGeometry x="280" y="3280" width="80" height="30" as="geometry"/>
                </mxCell>
                <mxCell id="32" value="" style="html=1;shadow=0;dashed=0;align=center;verticalAlign=middle;shape=mxgraph.arrows2.arrow;dy=0.6;dx=40;notch=0;" parent="3" vertex="1">
                    <mxGeometry x="290" y="3280" width="60" height="30" as="geometry"/>
                </mxCell>
                <mxCell id="34" value="*Text business place holder message that contains the view terms and policy page." style="rounded=0;whiteSpace=wrap;html=1;" parent="3" vertex="1">
                    <mxGeometry x="55" y="3330" width="305" height="60" as="geometry"/>
                </mxCell>
                <mxCell id="35" value="" style="dashed=0;outlineConnect=0;html=1;align=center;labelPosition=center;verticalLabelPosition=bottom;verticalAlign=top;shape=mxgraph.weblogos.instagram;fillColor=#6FC0E4;gradientColor=#1E305B" parent="3" vertex="1">
                    <mxGeometry x="60" y="3460" width="33.45" height="32.2" as="geometry"/>
                </mxCell>
                <mxCell id="36" value="" style="dashed=0;outlineConnect=0;html=1;align=center;labelPosition=center;verticalLabelPosition=bottom;verticalAlign=top;shape=mxgraph.webicons.facebook;fillColor=#6294E4;gradientColor=#1A2665" parent="3" vertex="1">
                    <mxGeometry x="140" y="3460" width="40" height="32.4" as="geometry"/>
                </mxCell>
                <mxCell id="37" value="" style="dashed=0;outlineConnect=0;html=1;align=center;labelPosition=center;verticalLabelPosition=bottom;verticalAlign=top;shape=mxgraph.weblogos.youtube_2;fillColor=#FF2626;gradientColor=#B5171F" parent="3" vertex="1">
                    <mxGeometry x="220" y="3460" width="46.400000000000006" height="32.6" as="geometry"/>
                </mxCell>
                <mxCell id="38" value="&lt;span style=&quot;color: rgba(0, 0, 0, 0); font-family: monospace; font-size: 0px; text-align: start;&quot;&gt;%3CmxGraphModel%3E%3Croot%3E%3CmxCell%20id%3D%220%22%2F%3E%3CmxCell%20id%3D%221%22%20parent%3D%220%22%2F%3E%3CmxCell%20id%3D%222%22%20value%3D%22%22%20style%3D%22dashed%3D0%3BoutlineConnect%3D0%3Bhtml%3D1%3Balign%3Dcenter%3BlabelPosition%3Dcenter%3BverticalLabelPosition%3Dbottom%3BverticalAlign%3Dtop%3Bshape%3Dmxgraph.weblogos.youtube_2%3BfillColor%3D%23FF2626%3BgradientColor%3D%23B5171F%22%20vertex%3D%221%22%20parent%3D%221%22%3E%3CmxGeometry%20x%3D%22370%22%20y%3D%223970%22%20width%3D%2246.400000000000006%22%20height%3D%2232.6%22%20as%3D%22geometry%22%2F%3E%3C%2FmxCell%3E%3C%2Froot%3E%3C%2FmxGraphModel%3E&lt;/span&gt;&lt;span style=&quot;color: rgba(0, 0, 0, 0); font-family: monospace; font-size: 0px; text-align: start;&quot;&gt;%3CmxGraphModel%3E%3Croot%3E%3CmxCell%20id%3D%220%22%2F%3E%3CmxCell%20id%3D%221%22%20parent%3D%220%22%2F%3E%3CmxCell%20id%3D%222%22%20value%3D%22%22%20style%3D%22dashed%3D0%3BoutlineConnect%3D0%3Bhtml%3D1%3Balign%3Dcenter%3BlabelPosition%3Dcenter%3BverticalLabelPosition%3Dbottom%3BverticalAlign%3Dtop%3Bshape%3Dmxgraph.weblogos.youtube_2%3BfillColor%3D%23FF2626%3BgradientColor%3D%23B5171F%22%20vertex%3D%221%22%20parent%3D%221%22%3E%3CmxGeometry%20x%3D%22370%22%20y%3D%223970%22%20width%3D%2246.400000000000006%22%20height%3D%2232.6%22%20as%3D%22geometry%22%2F%3E%3C%2FmxCell%3E%3C%2Froot%3E%3C%2FmxGraphModel%3E&lt;/span&gt;" style="dashed=0;outlineConnect=0;html=1;align=center;labelPosition=center;verticalLabelPosition=bottom;verticalAlign=top;shape=mxgraph.weblogos.twitter;fillColor=#1DA1F2;strokeColor=none" parent="3" vertex="1">
                    <mxGeometry x="300" y="3462.6" width="40" height="30" as="geometry"/>
                </mxCell>
                <mxCell id="39" value="&lt;span style=&quot;color: rgba(0, 0, 0, 0); font-family: monospace; font-size: 0px; text-align: start;&quot;&gt;%3CmxGraphModel%3E%3Croot%3E%3CmxCell%20id%3D%220%22%2F%3E%3CmxCell%20id%3D%221%22%20parent%3D%220%22%2F%3E%3CmxCell%20id%3D%222%22%20value%3D%22%26lt%3Bspan%20style%3D%26quot%3Bcolor%3A%20rgba(0%2C%200%2C%200%2C%200)%3B%20font-family%3A%20monospace%3B%20font-size%3A%200px%3B%20text-align%3A%20start%3B%26quot%3B%26gt%3B%253CmxGraphModel%253E%253Croot%253E%253CmxCell%2520id%253D%25220%2522%252F%253E%253CmxCell%2520id%253D%25221%2522%2520parent%253D%25220%2522%252F%253E%253CmxCell%2520id%253D%25222%2522%2520value%253D%2522%2522%2520style%253D%2522dashed%253D0%253BoutlineConnect%253D0%253Bhtml%253D1%253Balign%253Dcenter%253BlabelPosition%253Dcenter%253BverticalLabelPosition%253Dbottom%253BverticalAlign%253Dtop%253Bshape%253Dmxgraph.weblogos.youtube_2%253BfillColor%253D%2523FF2626%253BgradientColor%253D%2523B5171F%2522%2520vertex%253D%25221%2522%2520parent%253D%25221%2522%253E%253CmxGeometry%2520x%253D%2522370%2522%2520y%253D%25223970%2522%2520width%253D%252246.400000000000006%2522%2520height%253D%252232.6%2522%2520as%253D%2522geometry%2522%252F%253E%253C%252FmxCell%253E%253C%252Froot%253E%253C%252FmxGraphModel%253E%26lt%3B%2Fspan%26gt%3B%26lt%3Bspan%20style%3D%26quot%3Bcolor%3A%20rgba(0%2C%200%2C%200%2C%200)%3B%20font-family%3A%20monospace%3B%20font-size%3A%200px%3B%20text-align%3A%20start%3B%26quot%3B%26gt%3B%253CmxGraphModel%253E%253Croot%253E%253CmxCell%2520id%253D%25220%2522%252F%253E%253CmxCell%2520id%253D%25221%2522%2520parent%253D%25220%2522%252F%253E%253CmxCell%2520id%253D%25222%2522%2520value%253D%2522%2522%2520style%253D%2522dashed%253D0%253BoutlineConnect%253D0%253Bhtml%253D1%253Balign%253Dcenter%253BlabelPosition%253Dcenter%253BverticalLabelPosition%253Dbottom%253BverticalAlign%253Dtop%253Bshape%253Dmxgraph.weblogos.youtube_2%253BfillColor%253D%2523FF2626%253BgradientColor%253D%2523B5171F%2522%2520vertex%253D%25221%2522%2520parent%253D%25221%2522%253E%253CmxGeometry%2520x%253D%2522370%2522%2520y%253D%25223970%2522%2520width%253D%252246.400000000000006%2522%2520height%253D%252232.6%2522%2520as%253D%2522geometry%2522%252F%253E%253C%252FmxCell%253E%253C%252Froot%253E%253C%252FmxGraphModel%253E%26lt%3B%2Fspan%26gt%3B%22%20style%3D%22dashed%3D0%3BoutlineConnect%3D0%3Bhtml%3D1%3Balign%3Dcenter%3BlabelPosition%3Dcenter%3BverticalLabelPosition%3Dbottom%3BverticalAlign%3Dtop%3Bshape%3Dmxgraph.weblogos.twitter%3BfillColor%3D%231DA1F2%3BstrokeColor%3Dnone%22%20vertex%3D%221%22%20parent%3D%221%22%3E%3CmxGeometry%20x%3D%22450%22%20y%3D%223972.6%22%20width%3D%2240%22%20height%3D%2230%22%20as%3D%22geometry%22%2F%3E%3C%2FmxCell%3E%3C%2Froot%3E%3C%2FmxGraphModel%3E&lt;/span&gt;" style="dashed=0;outlineConnect=0;html=1;align=center;labelPosition=center;verticalLabelPosition=bottom;verticalAlign=top;shape=mxgraph.webicons.linkedin;fillColor=#0095DB;gradientColor=#006391" parent="3" vertex="1">
                    <mxGeometry x="380" y="3460" width="40" height="38.8" as="geometry"/>
                </mxCell>
                <mxCell id="40" value="Our Company" style="rounded=1;whiteSpace=wrap;html=1;" parent="3" vertex="1">
                    <mxGeometry x="50" y="3560" width="170" height="60" as="geometry"/>
                </mxCell>
                <mxCell id="41" value="" style="html=1;shadow=0;dashed=0;align=center;verticalAlign=middle;shape=mxgraph.arrows2.arrow;dy=0.6;dx=40;direction=south;notch=0;" parent="3" vertex="1">
                    <mxGeometry x="285" y="3550" width="70" height="80" as="geometry"/>
                </mxCell>
                <mxCell id="42" value="Customer Service" style="rounded=1;whiteSpace=wrap;html=1;" parent="3" vertex="1">
                    <mxGeometry x="50" y="3680" width="170" height="60" as="geometry"/>
                </mxCell>
                <mxCell id="43" value="" style="html=1;shadow=0;dashed=0;align=center;verticalAlign=middle;shape=mxgraph.arrows2.arrow;dy=0.6;dx=40;direction=south;notch=0;" parent="3" vertex="1">
                    <mxGeometry x="290" y="3670" width="70" height="80" as="geometry"/>
                </mxCell>
                <mxCell id="44" value="Account" style="rounded=1;whiteSpace=wrap;html=1;" parent="3" vertex="1">
                    <mxGeometry x="50" y="3810" width="170" height="60" as="geometry"/>
                </mxCell>
                <mxCell id="45" value="" style="html=1;shadow=0;dashed=0;align=center;verticalAlign=middle;shape=mxgraph.arrows2.arrow;dy=0.6;dx=40;direction=south;notch=0;" parent="3" vertex="1">
                    <mxGeometry x="300" y="3800" width="70" height="80" as="geometry"/>
                </mxCell>
                <mxCell id="46" value="&lt;span style=&quot;color: rgba(0, 0, 0, 0); font-family: monospace; font-size: 0px; text-align: start;&quot;&gt;%3CmxGraphModel%3E%3Croot%3E%3CmxCell%20id%3D%220%22%2F%3E%3CmxCell%20id%3D%221%22%20parent%3D%220%22%2F%3E%3CmxCell%20id%3D%222%22%20value%3D%22Account%22%20style%3D%22rounded%3D1%3BwhiteSpace%3Dwrap%3Bhtml%3D1%3B%22%20vertex%3D%221%22%20parent%3D%221%22%3E%3CmxGeometry%20x%3D%22200%22%20y%3D%224320%22%20width%3D%22170%22%20height%3D%2260%22%20as%3D%22geometry%22%2F%3E%3C%2FmxCell%3E%3C%2Froot%3E%3C%2FmxGraphModel%3E&lt;/span&gt;*SPONSORS AND ACCREDITION" style="rounded=1;whiteSpace=wrap;html=1;" parent="3" vertex="1">
                    <mxGeometry x="146.6" y="3950" width="206.8" height="60" as="geometry"/>
                </mxCell>
                <mxCell id="47" value="terms of use&lt;span style=&quot;white-space: pre;&quot;&gt;&#9;&lt;/span&gt;privacy notice&lt;span style=&quot;white-space: pre;&quot;&gt;&#9;&lt;/span&gt;&lt;span style=&quot;white-space: pre;&quot;&gt;&#9;&lt;/span&gt;site map&lt;span style=&quot;white-space: pre;&quot;&gt;&#9;&lt;/span&gt;&lt;span style=&quot;white-space: pre;&quot;&gt;&#9;&lt;/span&gt;Accessibility Statement" style="rounded=0;whiteSpace=wrap;html=1;" parent="3" vertex="1">
                    <mxGeometry x="35" y="4060" width="410" height="60" as="geometry"/>
                </mxCell>
                <mxCell id="85" style="edgeStyle=none;html=1;exitX=1;exitY=0.75;exitDx=0;exitDy=0;entryX=0.941;entryY=0.75;entryDx=0;entryDy=0;entryPerimeter=0;" edge="1" parent="3" source="42" target="42">
                    <mxGeometry relative="1" as="geometry"/>
                </mxCell>
                <mxCell id="48" value="DESKTOP" style="rounded=1;whiteSpace=wrap;html=1;" vertex="1" parent="1">
                    <mxGeometry x="1450" y="380" width="120" height="60" as="geometry"/>
                </mxCell>
                <mxCell id="49" value="" style="strokeWidth=1;shadow=0;dashed=0;align=center;html=1;shape=mxgraph.mockup.containers.browserWindow;rSize=0;strokeColor=#666666;strokeColor2=#008cff;strokeColor3=#c4c4c4;mainText=,;recursiveResize=0;" vertex="1" parent="1">
                    <mxGeometry x="840" y="520" width="1320" height="4350" as="geometry"/>
                </mxCell>
                <mxCell id="50" value="Page 1" style="strokeWidth=1;shadow=0;dashed=0;align=center;html=1;shape=mxgraph.mockup.containers.anchor;fontSize=17;fontColor=#666666;align=left;" vertex="1" parent="49">
                    <mxGeometry x="60" y="12" width="110" height="26" as="geometry"/>
                </mxCell>
                <mxCell id="51" value="https://www.draw.io" style="strokeWidth=1;shadow=0;dashed=0;align=center;html=1;shape=mxgraph.mockup.containers.anchor;rSize=0;fontSize=17;fontColor=#666666;align=left;" vertex="1" parent="49">
                    <mxGeometry x="130" y="60" width="250" height="26" as="geometry"/>
                </mxCell>
                <mxCell id="52" value="RACK&lt;span style=&quot;white-space: pre;&quot;&gt;&#9;&lt;/span&gt;&lt;span style=&quot;white-space: pre;&quot;&gt;&#9;&lt;/span&gt;BENCHES&lt;span style=&quot;white-space: pre;&quot;&gt;&#9;&lt;/span&gt;&lt;span style=&quot;white-space: pre;&quot;&gt;&#9;&lt;/span&gt;BARS&amp;amp;WEIGHTS&lt;span style=&quot;white-space: pre;&quot;&gt;&#9;&lt;/span&gt;&lt;span style=&quot;white-space: pre;&quot;&gt;&#9;&lt;/span&gt;MORE EQUIPMENT&lt;span style=&quot;white-space: pre;&quot;&gt;&#9;&lt;/span&gt;&lt;span style=&quot;white-space: pre;&quot;&gt;&#9;&lt;/span&gt;STORAGE" style="rounded=0;whiteSpace=wrap;html=1;" vertex="1" parent="49">
                    <mxGeometry y="110" width="1320" height="100" as="geometry"/>
                </mxCell>
                <mxCell id="53" value="" style="html=1;verticalLabelPosition=bottom;align=center;labelBackgroundColor=#ffffff;verticalAlign=top;strokeWidth=2;strokeColor=#0080F0;shadow=0;dashed=0;shape=mxgraph.ios7.icons.looking_glass;fontSize=24;" vertex="1" parent="49">
                    <mxGeometry x="1080" y="140" width="40" height="40" as="geometry"/>
                </mxCell>
                <mxCell id="54" value="&lt;span style=&quot;color: rgba(0, 0, 0, 0); font-family: monospace; font-size: 0px; text-align: start;&quot;&gt;%3CmxGraphModel%3E%3Croot%3E%3CmxCell%20id%3D%220%22%2F%3E%3CmxCell%20id%3D%221%22%20parent%3D%220%22%2F%3E%3CmxCell%20id%3D%222%22%20value%3D%22%22%20style%3D%22html%3D1%3BverticalLabelPosition%3Dbottom%3Balign%3Dcenter%3BlabelBackgroundColor%3D%23ffffff%3BverticalAlign%3Dtop%3BstrokeWidth%3D2%3BstrokeColor%3D%230080F0%3Bshadow%3D0%3Bdashed%3D0%3Bshape%3Dmxgraph.ios7.icons.looking_glass%3BfontSize%3D24%3B%22%20vertex%3D%221%22%20parent%3D%221%22%3E%3CmxGeometry%20x%3D%22500%22%20y%3D%22645%22%20width%3D%2240%22%20height%3D%2240%22%20as%3D%22geometry%22%2F%3E%3C%2FmxCell%3E%3C%2Froot%3E%3C%2FmxGraphModel%3E&lt;/span&gt;" style="verticalLabelPosition=bottom;shadow=0;dashed=0;align=center;html=1;verticalAlign=top;strokeWidth=1;shape=mxgraph.mockup.misc.shoppingCart;strokeColor=#999999;fontSize=24;" vertex="1" parent="49">
                    <mxGeometry x="990" y="130" width="50" height="50" as="geometry"/>
                </mxCell>
                <mxCell id="55" value="" style="shape=actor;whiteSpace=wrap;html=1;" vertex="1" parent="49">
                    <mxGeometry x="1200" y="130" width="40" height="60" as="geometry"/>
                </mxCell>
                <mxCell id="56" value="LOGO" style="ellipse;whiteSpace=wrap;html=1;fontSize=24;" vertex="1" parent="49">
                    <mxGeometry x="10" y="120" width="220" height="80" as="geometry"/>
                </mxCell>
                <mxCell id="57" value="&lt;font style=&quot;font-size: 24px;&quot;&gt;ABOUT US&lt;/font&gt;" style="rounded=0;whiteSpace=wrap;html=1;" vertex="1" parent="49">
                    <mxGeometry x="130" y="290" width="240" height="60" as="geometry"/>
                </mxCell>
                <mxCell id="58" value="" style="rounded=1;whiteSpace=wrap;html=1;strokeWidth=2;fillWeight=4;hachureGap=8;hachureAngle=45;fillColor=#1ba1e2;sketch=1;fontSize=24;" vertex="1" parent="49">
                    <mxGeometry x="120" y="390" width="430" height="210" as="geometry"/>
                </mxCell>
                <mxCell id="59" value="*ABOUT US COMPANY PLACE HOLDER TEXT SECTION" style="whiteSpace=wrap;html=1;aspect=fixed;fontSize=24;" vertex="1" parent="49">
                    <mxGeometry x="120" y="660" width="1120" height="1120" as="geometry"/>
                </mxCell>
                <mxCell id="60" value="&lt;span style=&quot;color: rgba(0, 0, 0, 0); font-family: monospace; font-size: 0px; text-align: start;&quot;&gt;%3CmxGraphModel%3E%3Croot%3E%3CmxCell%20id%3D%220%22%2F%3E%3CmxCell%20id%3D%221%22%20parent%3D%220%22%2F%3E%3CmxCell%20id%3D%222%22%20value%3D%22*ABOUT%20US%20COMPANY%20PLACE%20HOLDER%20TEXT%20SECTION%22%20style%3D%22whiteSpace%3Dwrap%3Bhtml%3D1%3Baspect%3Dfixed%3BfontSize%3D24%3B%22%20vertex%3D%221%22%20parent%3D%221%22%3E%3CmxGeometry%20x%3D%22230%22%20y%3D%221080%22%20width%3D%22340%22%20height%3D%22340%22%20as%3D%22geometry%22%2F%3E%3C%2FmxCell%3E%3C%2Froot%3E%3C%2FmxGraphModel%3E&lt;/span&gt;" style="verticalLabelPosition=bottom;shadow=0;dashed=0;align=center;html=1;verticalAlign=top;strokeWidth=1;shape=mxgraph.mockup.graphics.simpleIcon;strokeColor=#999999;fontSize=24;" vertex="1" parent="49">
                    <mxGeometry x="270" y="1830" width="870" height="530" as="geometry"/>
                </mxCell>
                <mxCell id="61" value="" style="line;strokeWidth=2;html=1;" vertex="1" parent="49">
                    <mxGeometry x="-20" y="2760" width="1340" height="10" as="geometry"/>
                </mxCell>
                <mxCell id="62" value="Customer Support" style="rounded=1;whiteSpace=wrap;html=1;" vertex="1" parent="49">
                    <mxGeometry x="170" y="2840" width="120" height="60" as="geometry"/>
                </mxCell>
                <mxCell id="63" value="Call or text&lt;br&gt;&lt;br&gt;* Have work cellphone number&amp;nbsp;&lt;br&gt;* Have work days that business is open" style="whiteSpace=wrap;html=1;aspect=fixed;" vertex="1" parent="49">
                    <mxGeometry x="140" y="2980" width="270" height="270" as="geometry"/>
                </mxCell>
                <mxCell id="64" value="Email&lt;br&gt;* Give us a email link that leads the user the business email leaks" style="whiteSpace=wrap;html=1;aspect=fixed;" vertex="1" parent="49">
                    <mxGeometry x="570" y="2980" width="270" height="270" as="geometry"/>
                </mxCell>
                <mxCell id="65" value="Live Chat&lt;br&gt;*Later down the line, create a live chat feature that lets the user communicate with a chat bot for simple inquiries" style="whiteSpace=wrap;html=1;aspect=fixed;" vertex="1" parent="49">
                    <mxGeometry x="970" y="2980" width="270" height="270" as="geometry"/>
                </mxCell>
                <mxCell id="66" value="PRICE" style="rounded=1;whiteSpace=wrap;html=1;fontSize=24;" vertex="1" parent="49">
                    <mxGeometry x="240" y="2450" width="120" height="60" as="geometry"/>
                </mxCell>
                <mxCell id="67" value="&lt;span style=&quot;color: rgba(0, 0, 0, 0); font-family: monospace; font-size: 0px; text-align: start;&quot;&gt;%3CmxGraphModel%3E%3Croot%3E%3CmxCell%20id%3D%220%22%2F%3E%3CmxCell%20id%3D%221%22%20parent%3D%220%22%2F%3E%3CmxCell%20id%3D%222%22%20value%3D%22PRICE%22%20style%3D%22rounded%3D1%3BwhiteSpace%3Dwrap%3Bhtml%3D1%3BfontSize%3D24%3B%22%20vertex%3D%221%22%20parent%3D%221%22%3E%3CmxGeometry%20x%3D%22210%22%20y%3D%221710%22%20width%3D%22120%22%20height%3D%2260%22%20as%3D%22geometry%22%2F%3E%3C%2FmxCell%3E%3C%2Froot%3E%3C%2FmxGraphModel%3E&lt;/span&gt;" style="rounded=1;whiteSpace=wrap;html=1;strokeWidth=2;fillWeight=4;hachureGap=8;hachureAngle=45;fillColor=#1ba1e2;sketch=1;fontSize=24;" vertex="1" parent="49">
                    <mxGeometry x="175" y="2570" width="250" height="130" as="geometry"/>
                </mxCell>
                <mxCell id="68" value="QUALITY" style="rounded=1;whiteSpace=wrap;html=1;fontSize=24;" vertex="1" parent="49">
                    <mxGeometry x="670" y="2450" width="120" height="60" as="geometry"/>
                </mxCell>
                <mxCell id="69" value="" style="rounded=1;whiteSpace=wrap;html=1;strokeWidth=2;fillWeight=4;hachureGap=8;hachureAngle=45;fillColor=#1ba1e2;sketch=1;fontSize=24;" vertex="1" parent="49">
                    <mxGeometry x="600" y="2570" width="250" height="130" as="geometry"/>
                </mxCell>
                <mxCell id="70" value="FREE SHIPPING" style="rounded=1;whiteSpace=wrap;html=1;fontSize=24;" vertex="1" parent="49">
                    <mxGeometry x="1010" y="2450" width="200" height="60" as="geometry"/>
                </mxCell>
                <mxCell id="71" value="&lt;span style=&quot;color: rgba(0, 0, 0, 0); font-family: monospace; font-size: 0px; text-align: start;&quot;&gt;%3CmxGraphModel%3E%3Croot%3E%3CmxCell%20id%3D%220%22%2F%3E%3CmxCell%20id%3D%221%22%20parent%3D%220%22%2F%3E%3CmxCell%20id%3D%222%22%20value%3D%22FREE%20SHIPPING%22%20style%3D%22rounded%3D1%3BwhiteSpace%3Dwrap%3Bhtml%3D1%3BfontSize%3D24%3B%22%20vertex%3D%221%22%20parent%3D%221%22%3E%3CmxGeometry%20x%3D%22210%22%20y%3D%222260%22%20width%3D%22200%22%20height%3D%2260%22%20as%3D%22geometry%22%2F%3E%3C%2FmxCell%3E%3C%2Froot%3E%3C%2FmxGraphModel%3E&lt;/span&gt;" style="rounded=1;whiteSpace=wrap;html=1;strokeWidth=2;fillWeight=4;hachureGap=8;hachureAngle=45;fillColor=#1ba1e2;sketch=1;fontSize=24;" vertex="1" parent="49">
                    <mxGeometry x="990" y="2570" width="250" height="130" as="geometry"/>
                </mxCell>
                <mxCell id="73" value="" style="rounded=0;whiteSpace=wrap;html=1;" vertex="1" parent="49">
                    <mxGeometry y="3290" width="1320" height="1060" as="geometry"/>
                </mxCell>
                <mxCell id="74" value="Sign Me Up" style="rounded=1;whiteSpace=wrap;html=1;" vertex="1" parent="49">
                    <mxGeometry x="70" y="3340" width="120" height="60" as="geometry"/>
                </mxCell>
                <mxCell id="75" value="" style="rounded=1;whiteSpace=wrap;html=1;" vertex="1" parent="49">
                    <mxGeometry x="70" y="3430" width="305" height="30" as="geometry"/>
                </mxCell>
                <mxCell id="76" value="" style="rounded=0;whiteSpace=wrap;html=1;" vertex="1" parent="49">
                    <mxGeometry x="295" y="3430" width="80" height="30" as="geometry"/>
                </mxCell>
                <mxCell id="77" value="" style="html=1;shadow=0;dashed=0;align=center;verticalAlign=middle;shape=mxgraph.arrows2.arrow;dy=0.6;dx=40;notch=0;" vertex="1" parent="49">
                    <mxGeometry x="305" y="3430" width="60" height="30" as="geometry"/>
                </mxCell>
                <mxCell id="78" value="*Text business place holder message that contains the view terms and policy page." style="rounded=0;whiteSpace=wrap;html=1;" vertex="1" parent="49">
                    <mxGeometry x="70" y="3480" width="305" height="60" as="geometry"/>
                </mxCell>
                <mxCell id="79" value="" style="dashed=0;outlineConnect=0;html=1;align=center;labelPosition=center;verticalLabelPosition=bottom;verticalAlign=top;shape=mxgraph.weblogos.instagram;fillColor=#6FC0E4;gradientColor=#1E305B" vertex="1" parent="49">
                    <mxGeometry x="70" y="3600" width="33.45" height="32.2" as="geometry"/>
                </mxCell>
                <mxCell id="80" value="" style="dashed=0;outlineConnect=0;html=1;align=center;labelPosition=center;verticalLabelPosition=bottom;verticalAlign=top;shape=mxgraph.webicons.facebook;fillColor=#6294E4;gradientColor=#1A2665" vertex="1" parent="49">
                    <mxGeometry x="150" y="3599.8" width="40" height="32.4" as="geometry"/>
                </mxCell>
                <mxCell id="81" value="" style="dashed=0;outlineConnect=0;html=1;align=center;labelPosition=center;verticalLabelPosition=bottom;verticalAlign=top;shape=mxgraph.weblogos.youtube_2;fillColor=#FF2626;gradientColor=#B5171F" vertex="1" parent="49">
                    <mxGeometry x="243.5999999999999" y="3600" width="46.400000000000006" height="32.6" as="geometry"/>
                </mxCell>
                <mxCell id="82" value="&lt;span style=&quot;color: rgba(0, 0, 0, 0); font-family: monospace; font-size: 0px; text-align: start;&quot;&gt;%3CmxGraphModel%3E%3Croot%3E%3CmxCell%20id%3D%220%22%2F%3E%3CmxCell%20id%3D%221%22%20parent%3D%220%22%2F%3E%3CmxCell%20id%3D%222%22%20value%3D%22%22%20style%3D%22dashed%3D0%3BoutlineConnect%3D0%3Bhtml%3D1%3Balign%3Dcenter%3BlabelPosition%3Dcenter%3BverticalLabelPosition%3Dbottom%3BverticalAlign%3Dtop%3Bshape%3Dmxgraph.weblogos.youtube_2%3BfillColor%3D%23FF2626%3BgradientColor%3D%23B5171F%22%20vertex%3D%221%22%20parent%3D%221%22%3E%3CmxGeometry%20x%3D%22370%22%20y%3D%223970%22%20width%3D%2246.400000000000006%22%20height%3D%2232.6%22%20as%3D%22geometry%22%2F%3E%3C%2FmxCell%3E%3C%2Froot%3E%3C%2FmxGraphModel%3E&lt;/span&gt;&lt;span style=&quot;color: rgba(0, 0, 0, 0); font-family: monospace; font-size: 0px; text-align: start;&quot;&gt;%3CmxGraphModel%3E%3Croot%3E%3CmxCell%20id%3D%220%22%2F%3E%3CmxCell%20id%3D%221%22%20parent%3D%220%22%2F%3E%3CmxCell%20id%3D%222%22%20value%3D%22%22%20style%3D%22dashed%3D0%3BoutlineConnect%3D0%3Bhtml%3D1%3Balign%3Dcenter%3BlabelPosition%3Dcenter%3BverticalLabelPosition%3Dbottom%3BverticalAlign%3Dtop%3Bshape%3Dmxgraph.weblogos.youtube_2%3BfillColor%3D%23FF2626%3BgradientColor%3D%23B5171F%22%20vertex%3D%221%22%20parent%3D%221%22%3E%3CmxGeometry%20x%3D%22370%22%20y%3D%223970%22%20width%3D%2246.400000000000006%22%20height%3D%2232.6%22%20as%3D%22geometry%22%2F%3E%3C%2FmxCell%3E%3C%2Froot%3E%3C%2FmxGraphModel%3E&lt;/span&gt;" style="dashed=0;outlineConnect=0;html=1;align=center;labelPosition=center;verticalLabelPosition=bottom;verticalAlign=top;shape=mxgraph.weblogos.twitter;fillColor=#1DA1F2;strokeColor=none" vertex="1" parent="49">
                    <mxGeometry x="340" y="3602.6000000000004" width="40" height="30" as="geometry"/>
                </mxCell>
                <mxCell id="83" value="&lt;span style=&quot;color: rgba(0, 0, 0, 0); font-family: monospace; font-size: 0px; text-align: start;&quot;&gt;%3CmxGraphModel%3E%3Croot%3E%3CmxCell%20id%3D%220%22%2F%3E%3CmxCell%20id%3D%221%22%20parent%3D%220%22%2F%3E%3CmxCell%20id%3D%222%22%20value%3D%22%26lt%3Bspan%20style%3D%26quot%3Bcolor%3A%20rgba(0%2C%200%2C%200%2C%200)%3B%20font-family%3A%20monospace%3B%20font-size%3A%200px%3B%20text-align%3A%20start%3B%26quot%3B%26gt%3B%253CmxGraphModel%253E%253Croot%253E%253CmxCell%2520id%253D%25220%2522%252F%253E%253CmxCell%2520id%253D%25221%2522%2520parent%253D%25220%2522%252F%253E%253CmxCell%2520id%253D%25222%2522%2520value%253D%2522%2522%2520style%253D%2522dashed%253D0%253BoutlineConnect%253D0%253Bhtml%253D1%253Balign%253Dcenter%253BlabelPosition%253Dcenter%253BverticalLabelPosition%253Dbottom%253BverticalAlign%253Dtop%253Bshape%253Dmxgraph.weblogos.youtube_2%253BfillColor%253D%2523FF2626%253BgradientColor%253D%2523B5171F%2522%2520vertex%253D%25221%2522%2520parent%253D%25221%2522%253E%253CmxGeometry%2520x%253D%2522370%2522%2520y%253D%25223970%2522%2520width%253D%252246.400000000000006%2522%2520height%253D%252232.6%2522%2520as%253D%2522geometry%2522%252F%253E%253C%252FmxCell%253E%253C%252Froot%253E%253C%252FmxGraphModel%253E%26lt%3B%2Fspan%26gt%3B%26lt%3Bspan%20style%3D%26quot%3Bcolor%3A%20rgba(0%2C%200%2C%200%2C%200)%3B%20font-family%3A%20monospace%3B%20font-size%3A%200px%3B%20text-align%3A%20start%3B%26quot%3B%26gt%3B%253CmxGraphModel%253E%253Croot%253E%253CmxCell%2520id%253D%25220%2522%252F%253E%253CmxCell%2520id%253D%25221%2522%2520parent%253D%25220%2522%252F%253E%253CmxCell%2520id%253D%25222%2522%2520value%253D%2522%2522%2520style%253D%2522dashed%253D0%253BoutlineConnect%253D0%253Bhtml%253D1%253Balign%253Dcenter%253BlabelPosition%253Dcenter%253BverticalLabelPosition%253Dbottom%253BverticalAlign%253Dtop%253Bshape%253Dmxgraph.weblogos.youtube_2%253BfillColor%253D%2523FF2626%253BgradientColor%253D%2523B5171F%2522%2520vertex%253D%25221%2522%2520parent%253D%25221%2522%253E%253CmxGeometry%2520x%253D%2522370%2522%2520y%253D%25223970%2522%2520width%253D%252246.400000000000006%2522%2520height%253D%252232.6%2522%2520as%253D%2522geometry%2522%252F%253E%253C%252FmxCell%253E%253C%252Froot%253E%253C%252FmxGraphModel%253E%26lt%3B%2Fspan%26gt%3B%22%20style%3D%22dashed%3D0%3BoutlineConnect%3D0%3Bhtml%3D1%3Balign%3Dcenter%3BlabelPosition%3Dcenter%3BverticalLabelPosition%3Dbottom%3BverticalAlign%3Dtop%3Bshape%3Dmxgraph.weblogos.twitter%3BfillColor%3D%231DA1F2%3BstrokeColor%3Dnone%22%20vertex%3D%221%22%20parent%3D%221%22%3E%3CmxGeometry%20x%3D%22450%22%20y%3D%223972.6%22%20width%3D%2240%22%20height%3D%2230%22%20as%3D%22geometry%22%2F%3E%3C%2FmxCell%3E%3C%2Froot%3E%3C%2FmxGraphModel%3E&lt;/span&gt;" style="dashed=0;outlineConnect=0;html=1;align=center;labelPosition=center;verticalLabelPosition=bottom;verticalAlign=top;shape=mxgraph.webicons.linkedin;fillColor=#0095DB;gradientColor=#006391" vertex="1" parent="49">
                    <mxGeometry x="415" y="3596.8999999999996" width="40" height="38.8" as="geometry"/>
                </mxCell>
                <mxCell id="84" value="Our Company" style="rounded=1;whiteSpace=wrap;html=1;" vertex="1" parent="49">
                    <mxGeometry x="580" y="3390" width="170" height="60" as="geometry"/>
                </mxCell>
                <mxCell id="86" value="Customer Service" style="rounded=1;whiteSpace=wrap;html=1;" vertex="1" parent="49">
                    <mxGeometry x="860" y="3390" width="170" height="60" as="geometry"/>
                </mxCell>
                <mxCell id="87" value="Account" style="rounded=1;whiteSpace=wrap;html=1;" vertex="1" parent="49">
                    <mxGeometry x="1140" y="3390" width="170" height="60" as="geometry"/>
                </mxCell>
                <mxCell id="88" value="&lt;span style=&quot;color: rgba(0, 0, 0, 0); font-family: monospace; font-size: 0px; text-align: start;&quot;&gt;%3CmxGraphModel%3E%3Croot%3E%3CmxCell%20id%3D%220%22%2F%3E%3CmxCell%20id%3D%221%22%20parent%3D%220%22%2F%3E%3CmxCell%20id%3D%222%22%20value%3D%22Account%22%20style%3D%22rounded%3D1%3BwhiteSpace%3Dwrap%3Bhtml%3D1%3B%22%20vertex%3D%221%22%20parent%3D%221%22%3E%3CmxGeometry%20x%3D%22200%22%20y%3D%224320%22%20width%3D%22170%22%20height%3D%2260%22%20as%3D%22geometry%22%2F%3E%3C%2FmxCell%3E%3C%2Froot%3E%3C%2FmxGraphModel%3E&lt;/span&gt;*SPONSORS AND ACCREDITION" style="rounded=1;whiteSpace=wrap;html=1;" vertex="1" parent="49">
                    <mxGeometry x="490" y="3920" width="420" height="140" as="geometry"/>
                </mxCell>
                <mxCell id="89" value="terms of use&lt;span style=&quot;white-space: pre;&quot;&gt;&#9;&lt;/span&gt;privacy notice&lt;span style=&quot;white-space: pre;&quot;&gt;&#9;&lt;/span&gt;&lt;span style=&quot;white-space: pre;&quot;&gt;&#9;&lt;/span&gt;site map&lt;span style=&quot;white-space: pre;&quot;&gt;&#9;&lt;/span&gt;&lt;span style=&quot;white-space: pre;&quot;&gt;&#9;&lt;/span&gt;Accessibility Statement" style="rounded=0;whiteSpace=wrap;html=1;" vertex="1" parent="49">
                    <mxGeometry x="490" y="4180" width="410" height="60" as="geometry"/>
                </mxCell>
                <mxCell id="72" value="Customer Support" style="rounded=1;whiteSpace=wrap;html=1;" vertex="1" parent="1">
                    <mxGeometry x="220" y="2630" width="120" height="60" as="geometry"/>
                </mxCell>
            </root>
        </mxGraphModel>
    </diagram>
</mxfile>